<svg width="228" height="40.5" viewBox="0 0 456 81" fill="none" xmlns="http://www.w3.org/2000/svg">
<g clip-path="url(#clip0_2010_2332)">
<path d="M20.3041 23.6598H6.6053V8.9895H0V44.5669H6.6053V29.7576H20.3041V44.5669H26.9105V8.9895H20.3041V23.6598Z" fill="#041742"/>
<path d="M129.186 29.3225C131.081 27.2343 132.124 24.2761 132.124 20.9928C132.124 17.6322 131.108 14.7355 129.192 12.6232C127.73 10.9652 124.979 8.98938 120.167 8.98938H109.367V44.5669H115.973V32.9503H118.978L127.632 44.5669H135.238L125.728 31.8228C127.367 31.0977 128.498 30.0887 129.187 29.3226L129.186 29.3225ZM126.028 20.9928C126.028 22.8477 125.57 24.2773 124.655 25.2574C123.692 26.3474 122.181 26.8997 120.167 26.8997H115.973V15.086H120.167C122.208 15.086 123.718 15.6238 124.667 16.6944C125.57 17.6624 126.028 19.1076 126.028 20.9928Z" fill="#041742"/>
<path d="M156.383 8.9895H149.776V44.5669H156.383V8.9895Z" fill="#041742"/>
<path d="M175.606 8.9895V15.5948H188.916L172.477 44.5669H200.697V37.9604H184.26L200.697 8.9895H175.606Z" fill="#041742"/>
<path d="M216.386 44.5669H238.219V38.4703H222.993V29.0627H235.534V22.9662H222.993V15.0401H238.219V8.9895H216.386V44.5669Z" fill="#041742"/>
<path d="M275.631 31.279L258.908 8.9895H254.065V44.5669H260.671V22.229L277.48 44.5669H282.284V8.9895H275.631V31.279Z" fill="#041742"/>
<path d="M89.7536 11.1941L89.7519 11.1986L85.372 17.9817C86.7119 20.625 87.4718 23.612 87.4718 26.7782C87.4718 37.541 78.7468 46.266 67.984 46.266C64.8219 46.266 61.8385 45.5081 59.1978 44.1715L52.4126 48.5569C56.8011 51.7002 62.1742 53.5565 67.984 53.5565C82.7732 53.5565 94.7623 41.5675 94.7623 26.7783C94.7623 20.9629 92.9026 15.585 89.7537 11.1942L89.7536 11.1941Z" fill="url(#paint0_radial_2010_2332)"/>
<path d="M67.9841 40.1884C74.5766 40.1884 80.0574 35.444 81.208 29.1841C79.1215 28.7379 76.9586 28.4977 74.7389 28.4977C68.0553 28.4977 61.8743 30.634 56.8267 34.2512C59.2431 37.8328 63.3384 40.1883 67.9841 40.1883V40.1884Z" fill="url(#paint1_radial_2010_2332)"/>
<path d="M74.6133 26.0521C76.9543 26.0521 79.2347 26.3083 81.4338 26.7829C81.4338 26.7813 81.4339 26.7798 81.4339 26.7782C81.4339 19.35 75.4121 13.3284 67.9841 13.3284C60.5561 13.3284 54.5343 19.3501 54.5343 26.7782C54.5343 27.3885 54.5798 27.9876 54.6589 28.5761C54.6575 28.5772 54.6563 28.5779 54.6549 28.579C51.2679 31.1512 49.6618 33.1896 49.6108 33.2548C48.8939 31.2282 48.4964 29.0509 48.4964 26.7782C48.4964 16.0154 57.2213 7.2904 67.9841 7.2904C71.1358 7.2904 74.11 8.0432 76.7443 9.3716L83.5336 4.9839C79.1491 1.8501 73.7843 0 67.9842 0C53.1951 0 41.2061 11.989 41.2061 26.7782C41.2061 32.7308 43.1514 38.2267 46.4376 42.6717C47.707 40.38 49.2479 38.2609 51.0167 36.355C51.0167 36.355 53.6579 33.5989 55.6817 32.2133C60.9956 28.3419 67.5356 26.0521 74.6135 26.0521H74.6133Z" fill="#041742"/>
<path d="M287.842 13.5751V9.54851H286.4V8.81311H290.119V9.54851H288.678V13.5751H287.842H287.842Z" fill="#041742"/>
<path d="M294.941 13.5751V10.0412L293.477 13.5751H293.12L291.664 10.0412V13.5751H290.829V8.81311H292.007L293.299 11.9473L294.598 8.81311H295.777V13.5751H294.941H294.941Z" fill="#041742"/>
<path d="M318.228 8.69409H314.925V44.4479H318.228V8.69409Z" fill="url(#paint2_linear_2010_2332)"/>
<path d="M345.073 44.3059H369.569V38.3977H351.716V29.1839H369.201V23.2752H351.716V14.6917H369.569V8.78351H345.073V44.3059Z" fill="#041742"/>
<path d="M396.581 8.20581C386.061 8.20581 378.425 15.9294 378.425 26.571C378.425 37.2126 386.061 44.9357 396.581 44.9357C407.102 44.9357 414.735 37.2121 414.735 26.571C414.735 15.9299 407.101 8.20581 396.581 8.20581ZM407.935 26.571C407.935 33.8747 403.266 38.9758 396.581 38.9758C389.897 38.9758 385.227 33.8747 385.227 26.571C385.227 19.2673 389.896 14.1667 396.581 14.1667C403.267 14.1667 407.935 19.2678 407.935 26.571Z" fill="#041742"/>
<path d="M449.007 8.78351V33.095L431.554 8.88751L431.48 8.78351H424.801V44.3059H431.444V19.3157L449.263 44.201L449.337 44.3059H455.65V8.78351H449.007Z" fill="#041742"/>
</g>
<path d="M232.438 80H239.539C245.182 80 249.096 76.436 249.096 71.009C249.096 65.582 245.182 61.991 239.539 61.991H232.438V80ZM236.271 76.625V65.366H239.539C243.238 65.366 245.182 67.823 245.182 71.009C245.182 74.06 243.103 76.625 239.539 76.625H236.271Z" fill="#F251EA"/>
<path d="M254.517 72.818C254.517 77.246 257.082 80.324 262.59 80.324C268.044 80.324 270.609 77.273 270.609 72.791V61.991H266.721V72.683C266.721 75.194 265.344 76.922 262.59 76.922C259.782 76.922 258.405 75.194 258.405 72.683V61.991H254.517V72.818Z" fill="#F251EA"/>
<path d="M289.281 80H292.98V61.991H289.146V73.655L280.803 61.991H276.861V80H280.695V67.904L289.281 80Z" fill="#F251EA"/>
<path d="M299.231 80H311.975V76.679H303.065V72.494H311.786V69.2H303.065V65.285H311.975V61.991H299.231V80Z" fill="#F251EA"/>
<path d="M331.438 80H335.299V65.366H340.537V61.991H326.173V65.366H331.438V80Z" fill="#F251EA"/>
<path d="M345.695 80H358.439V76.679H349.529V72.494H358.25V69.2H349.529V65.285H358.439V61.991H345.695V80Z" fill="#F251EA"/>
<path d="M362.894 77.462C364.595 79.163 367.079 80.324 370.535 80.324C375.395 80.324 377.744 77.84 377.744 74.546C377.744 70.55 373.964 69.659 370.994 68.984C368.915 68.498 367.403 68.12 367.403 66.905C367.403 65.825 368.321 65.069 370.049 65.069C371.804 65.069 373.748 65.69 375.206 67.04L377.339 64.232C375.557 62.585 373.181 61.721 370.319 61.721C366.08 61.721 363.488 64.151 363.488 67.148C363.488 71.171 367.268 71.981 370.211 72.656C372.29 73.142 373.856 73.601 373.856 74.951C373.856 75.977 372.83 76.976 370.724 76.976C368.24 76.976 366.269 75.869 365 74.546L362.894 77.462Z" fill="#F251EA"/>
<path d="M386.999 80H390.86V65.366H396.098V61.991H381.734V65.366H386.999V80Z" fill="#F251EA"/>
<path d="M413.676 80H417.375V61.991H413.541V73.655L405.198 61.991H401.256V80H405.09V67.904L413.676 80Z" fill="#F251EA"/>
<path d="M423.626 80H436.37V76.679H427.46V72.494H436.181V69.2H427.46V65.285H436.37V61.991H423.626V80Z" fill="#F251EA"/>
<path d="M446.225 80H450.086V65.366H455.324V61.991H440.96V65.366H446.225V80Z" fill="#F251EA"/>
<defs>
<radialGradient id="paint0_radial_2010_2332" cx="0" cy="0" r="1" gradientUnits="userSpaceOnUse" gradientTransform="translate(89.7573 11.1621) scale(45.0522 45.0522)">
<stop offset="0.0986" stop-color="#26DB8D"/>
<stop offset="0.2628" stop-color="#22D299"/>
<stop offset="0.5637" stop-color="#19BABA"/>
<stop offset="0.886" stop-color="#0E9DE5"/>
</radialGradient>
<radialGradient id="paint1_radial_2010_2332" cx="0" cy="0" r="1" gradientUnits="userSpaceOnUse" gradientTransform="translate(89.7574 11.1621) scale(45.0522)">
<stop offset="0.0986" stop-color="#26DB8D"/>
<stop offset="0.2628" stop-color="#22D299"/>
<stop offset="0.5637" stop-color="#19BABA"/>
<stop offset="0.886" stop-color="#0E9DE5"/>
</radialGradient>
<linearGradient id="paint2_linear_2010_2332" x1="316.577" y1="10.2729" x2="316.577" y2="39.8286" gradientUnits="userSpaceOnUse">
<stop offset="0.0982" stop-color="#26DB8D"/>
<stop offset="0.2625" stop-color="#22D299"/>
<stop offset="0.5635" stop-color="#19BABA"/>
<stop offset="0.886" stop-color="#0E9DE5"/>
</linearGradient>
<clipPath id="clip0_2010_2332">
<rect width="455.65" height="53.5564" fill="white"/>
</clipPath>
</defs>
</svg>
