<svg width="457" height="81" viewBox="0 0 457 81" fill="none" xmlns="http://www.w3.org/2000/svg">
<g clip-path="url(#clip0_2010_2335)">
<path d="M20.9538 23.9838H7.25496V9.31348H0.649658V44.8909H7.25496V30.0816H20.9538V44.8909H27.5602V9.31348H20.9538V23.9838Z" fill="white"/>
<path d="M129.836 29.6465C131.731 27.5583 132.774 24.6001 132.774 21.3168C132.774 17.9562 131.758 15.0595 129.842 12.9472C128.38 11.2892 125.628 9.31335 120.816 9.31335H110.017V44.8909H116.623V33.2743H119.627L128.282 44.8909H135.888L126.378 32.1468C128.016 31.4217 129.147 30.4127 129.836 29.6466L129.836 29.6465ZM126.677 21.3168C126.677 23.1717 126.219 24.6013 125.305 25.5814C124.341 26.6714 122.831 27.2237 120.816 27.2237H116.623V15.41H120.816C122.857 15.41 124.368 15.9478 125.317 17.0184C126.219 17.9864 126.677 19.4316 126.677 21.3168Z" fill="white"/>
<path d="M157.033 9.31348H150.426V44.8909H157.033V9.31348Z" fill="white"/>
<path d="M176.256 9.31348V15.9188H189.565L173.127 44.8909H201.346V38.2844H184.909L201.346 9.31348H176.256Z" fill="white"/>
<path d="M217.036 44.8909H238.869V38.7943H223.642V29.3867H236.184V23.2902H223.642V15.3641H238.869V9.31348H217.036V44.8909Z" fill="white"/>
<path d="M276.281 31.603L259.557 9.31348H254.714V44.8909H261.321V22.553L278.129 44.8909H282.934V9.31348H276.281V31.603Z" fill="white"/>
<path d="M90.4033 11.5181L90.4016 11.5226L86.0217 18.3057C87.3616 20.949 88.1215 23.936 88.1215 27.1022C88.1215 37.865 79.3965 46.59 68.6337 46.59C65.4716 46.59 62.4882 45.8321 59.8475 44.4955L53.0623 48.8809C57.4508 52.0242 62.8239 53.8805 68.6337 53.8805C83.4229 53.8805 95.412 41.8915 95.412 27.1023C95.412 21.2869 93.5523 15.909 90.4034 11.5182L90.4033 11.5181Z" fill="url(#paint0_radial_2010_2335)"/>
<path d="M68.6337 40.5124C75.2262 40.5124 80.707 35.768 81.8576 29.5081C79.7711 29.0619 77.6082 28.8217 75.3885 28.8217C68.7049 28.8217 62.5239 30.958 57.4763 34.5752C59.8927 38.1568 63.988 40.5123 68.6337 40.5123V40.5124Z" fill="url(#paint1_radial_2010_2335)"/>
<path d="M75.2629 26.3761C77.6039 26.3761 79.8843 26.6323 82.0834 27.1069C82.0834 27.1053 82.0835 27.1038 82.0835 27.1022C82.0835 19.674 76.0617 13.6524 68.6337 13.6524C61.2057 13.6524 55.1839 19.6741 55.1839 27.1022C55.1839 27.7125 55.2294 28.3116 55.3085 28.9001C55.3071 28.9012 55.3059 28.9019 55.3045 28.903C51.9175 31.4752 50.3114 33.5136 50.2604 33.5788C49.5435 31.5522 49.146 29.3749 49.146 27.1022C49.146 16.3394 57.8709 7.61437 68.6337 7.61437C71.7854 7.61437 74.7596 8.36717 77.3939 9.69557L84.1832 5.30787C79.7987 2.17407 74.4339 0.323975 68.6338 0.323975C53.8447 0.323975 41.8557 12.313 41.8557 27.1022C41.8557 33.0548 43.801 38.5507 47.0872 42.9957C48.3566 40.704 49.8975 38.5849 51.6663 36.679C51.6663 36.679 54.3075 33.9229 56.3313 32.5373C61.6452 28.6659 68.1852 26.3761 75.2631 26.3761H75.2629Z" fill="white"/>
<path d="M288.492 13.8991V9.87249H287.05V9.13708H290.769V9.87249H289.327V13.8991H288.492H288.492Z" fill="white"/>
<path d="M295.591 13.8991V10.3652L294.127 13.8991H293.77L292.314 10.3652V13.8991H291.478V9.13708H292.656L293.949 12.2713L295.248 9.13708H296.426V13.8991H295.591H295.591Z" fill="white"/>
<path d="M318.878 9.01807H315.575V44.7719H318.878V9.01807Z" fill="url(#paint2_linear_2010_2335)"/>
<path d="M345.723 44.6299H370.219V38.7217H352.366V29.5079H369.851V23.5992H352.366V15.0157H370.219V9.10754H345.723V44.6299Z" fill="white"/>
<path d="M397.231 8.52979C386.71 8.52979 379.075 16.2534 379.075 26.895C379.075 37.5366 386.71 45.2597 397.231 45.2597C407.751 45.2597 415.385 37.5361 415.385 26.895C415.385 16.2539 407.75 8.52979 397.231 8.52979V8.52979ZM408.584 26.895C408.584 34.1987 403.915 39.2998 397.231 39.2998C390.546 39.2998 385.876 34.1987 385.876 26.895C385.876 19.5913 390.545 14.4907 397.231 14.4907C403.916 14.4907 408.584 19.5918 408.584 26.895V26.895Z" fill="white"/>
<path d="M449.657 9.10754V33.419L432.204 9.21154L432.129 9.10754H425.451V44.6299H432.093V19.6397L449.913 44.525L449.987 44.6299H456.299V9.10754H449.657Z" fill="white"/>
</g>
<path d="M241.267 71.3329C241.267 77.0029 245.587 80.6749 250.852 80.6749C254.119 80.6749 256.684 79.3249 258.52 77.2729V70.3879H249.934V73.6819H254.74V75.8689C253.957 76.5709 252.499 77.2459 250.852 77.2459C247.585 77.2459 245.209 74.7349 245.209 71.3329C245.209 67.9309 247.585 65.4199 250.852 65.4199C252.742 65.4199 254.281 66.4189 255.118 67.6879L258.304 65.9599C256.927 63.8269 254.578 62.0179 250.852 62.0179C245.587 62.0179 241.267 65.6359 241.267 71.3329Z" fill="#4CDFDD"/>
<path d="M263.4 71.3329C263.4 76.7599 267.369 80.6479 272.796 80.6479C278.25 80.6479 282.219 76.7599 282.219 71.3329C282.219 65.9059 278.25 62.0179 272.796 62.0179C267.369 62.0179 263.4 65.9059 263.4 71.3329ZM278.277 71.3329C278.277 74.6809 276.117 77.2459 272.796 77.2459C269.475 77.2459 267.342 74.6809 267.342 71.3329C267.342 67.9579 269.475 65.4199 272.796 65.4199C276.117 65.4199 278.277 67.9579 278.277 71.3329Z" fill="#4CDFDD"/>
<path d="M287.609 80.3239H297.383C300.812 80.3239 302.621 78.1639 302.621 75.4639C302.621 73.1959 301.082 71.3329 299.165 71.0359C300.866 70.6849 302.27 69.1729 302.27 66.9049C302.27 64.5019 300.515 62.3149 297.086 62.3149H287.609V80.3239ZM291.443 69.5509V65.5819H296.249C297.545 65.5819 298.355 66.4459 298.355 67.5529C298.355 68.7139 297.545 69.5509 296.249 69.5509H291.443ZM291.443 77.0569V72.8179H296.384C297.896 72.8179 298.706 73.7899 298.706 74.9239C298.706 76.2199 297.842 77.0569 296.384 77.0569H291.443Z" fill="#4CDFDD"/>
<path d="M308.213 80.3239H312.047V62.3149H308.213V80.3239Z" fill="#4CDFDD"/>
<path d="M332.088 80.3239H335.949V65.6899H341.187V62.3149H326.823V65.6899H332.088V80.3239Z" fill="#4CDFDD"/>
<path d="M346.345 80.3239H359.089V77.0029H350.179V72.8179H358.9V69.5239H350.179V65.6089H359.089V62.3149H346.345V80.3239Z" fill="#4CDFDD"/>
<path d="M363.544 77.7859C365.245 79.4869 367.729 80.6479 371.185 80.6479C376.045 80.6479 378.394 78.1639 378.394 74.8699C378.394 70.8739 374.614 69.9829 371.644 69.3079C369.565 68.8219 368.053 68.4439 368.053 67.2289C368.053 66.1489 368.971 65.3929 370.699 65.3929C372.454 65.3929 374.398 66.0139 375.856 67.3639L377.989 64.5559C376.207 62.9089 373.831 62.0449 370.969 62.0449C366.73 62.0449 364.138 64.4749 364.138 67.4719C364.138 71.4949 367.918 72.3049 370.861 72.9799C372.94 73.4659 374.506 73.9249 374.506 75.2749C374.506 76.3009 373.48 77.2999 371.374 77.2999C368.89 77.2999 366.919 76.1929 365.65 74.8699L363.544 77.7859Z" fill="#4CDFDD"/>
<path d="M387.649 80.3239H391.51V65.6899H396.748V62.3149H382.384V65.6899H387.649V80.3239Z" fill="#4CDFDD"/>
<path d="M414.326 80.3239H418.025V62.3149H414.191V73.9789L405.848 62.3149H401.906V80.3239H405.74V68.2279L414.326 80.3239Z" fill="#4CDFDD"/>
<path d="M424.276 80.3239H437.02V77.0029H428.11V72.8179H436.831V69.5239H428.11V65.6089H437.02V62.3149H424.276V80.3239Z" fill="#4CDFDD"/>
<path d="M446.875 80.3239H450.736V65.6899H455.974V62.3149H441.61V65.6899H446.875V80.3239Z" fill="#4CDFDD"/>
<defs>
<radialGradient id="paint0_radial_2010_2335" cx="0" cy="0" r="1" gradientUnits="userSpaceOnUse" gradientTransform="translate(90.407 11.4861) scale(45.0522 45.0522)">
<stop offset="0.0986" stop-color="#26DB8D"/>
<stop offset="0.2628" stop-color="#22D299"/>
<stop offset="0.5637" stop-color="#19BABA"/>
<stop offset="0.886" stop-color="#0E9DE5"/>
</radialGradient>
<radialGradient id="paint1_radial_2010_2335" cx="0" cy="0" r="1" gradientUnits="userSpaceOnUse" gradientTransform="translate(90.407 11.4861) scale(45.0522)">
<stop offset="0.0986" stop-color="#26DB8D"/>
<stop offset="0.2628" stop-color="#22D299"/>
<stop offset="0.5637" stop-color="#19BABA"/>
<stop offset="0.886" stop-color="#0E9DE5"/>
</radialGradient>
<linearGradient id="paint2_linear_2010_2335" x1="317.227" y1="10.5969" x2="317.227" y2="40.1526" gradientUnits="userSpaceOnUse">
<stop offset="0.0982" stop-color="#26DB8D"/>
<stop offset="0.2625" stop-color="#22D299"/>
<stop offset="0.5635" stop-color="#19BABA"/>
<stop offset="0.886" stop-color="#0E9DE5"/>
</linearGradient>
<clipPath id="clip0_2010_2335">
<rect width="455.65" height="53.5564" fill="white" transform="translate(0.649658 0.323975)"/>
</clipPath>
</defs>
</svg>
