<svg width="228" height="40.5" viewBox="0 0 457 81" fill="none" xmlns="http://www.w3.org/2000/svg">
<g clip-path="url(#clip0_3109_3307)">
<path d="M20.9538 24.3347H7.25496V9.66443H0.649658V45.2418H7.25496V30.4325H20.9538V45.2418H27.5602V9.66443H20.9538V24.3347Z" fill="white"/>
<path d="M129.836 29.9974C131.731 27.9092 132.774 24.951 132.774 21.6677C132.774 18.3071 131.758 15.4104 129.842 13.2981C128.38 11.6401 125.628 9.66431 120.816 9.66431H110.017V45.2418H116.623V33.6252H119.627L128.282 45.2418H135.888L126.378 32.4977C128.016 31.7726 129.147 30.7636 129.836 29.9975L129.836 29.9974ZM126.677 21.6677C126.677 23.5226 126.219 24.9522 125.305 25.9323C124.341 27.0223 122.831 27.5746 120.816 27.5746H116.623V15.7609H120.816C122.857 15.7609 124.368 16.2987 125.317 17.3693C126.219 18.3373 126.677 19.7825 126.677 21.6677Z" fill="white"/>
<path d="M157.033 9.66443H150.426V45.2418H157.033V9.66443Z" fill="white"/>
<path d="M176.256 9.66443V16.2697H189.565L173.127 45.2418H201.346V38.6353H184.909L201.346 9.66443H176.256Z" fill="white"/>
<path d="M217.036 45.2418H238.869V39.1452H223.642V29.7376H236.184V23.6411H223.642V15.715H238.869V9.66443H217.036V45.2418Z" fill="white"/>
<path d="M276.281 31.9539L259.557 9.66443H254.714V45.2418H261.321V22.9039L278.129 45.2418H282.934V9.66443H276.281V31.9539Z" fill="white"/>
<path d="M90.4033 11.869L90.4016 11.8735L86.0217 18.6566C87.3616 21.2999 88.1215 24.2869 88.1215 27.4531C88.1215 38.2159 79.3965 46.9409 68.6337 46.9409C65.4716 46.9409 62.4882 46.183 59.8475 44.8464L53.0623 49.2318C57.4508 52.3751 62.8239 54.2314 68.6337 54.2314C83.4229 54.2314 95.412 42.2424 95.412 27.4532C95.412 21.6378 93.5523 16.2599 90.4034 11.8691L90.4033 11.869Z" fill="url(#paint0_radial_3109_3307)"/>
<path d="M68.6337 40.8633C75.2262 40.8633 80.707 36.1189 81.8576 29.859C79.7711 29.4128 77.6082 29.1726 75.3885 29.1726C68.7049 29.1726 62.5239 31.3089 57.4763 34.9261C59.8927 38.5077 63.988 40.8632 68.6337 40.8632V40.8633Z" fill="url(#paint1_radial_3109_3307)"/>
<path d="M75.2629 26.727C77.6039 26.727 79.8843 26.9832 82.0834 27.4578C82.0834 27.4562 82.0835 27.4547 82.0835 27.4531C82.0835 20.0249 76.0617 14.0033 68.6337 14.0033C61.2057 14.0033 55.1839 20.025 55.1839 27.4531C55.1839 28.0634 55.2294 28.6625 55.3085 29.251C55.3071 29.2521 55.3059 29.2528 55.3045 29.2539C51.9175 31.8261 50.3114 33.8645 50.2604 33.9297C49.5435 31.9031 49.146 29.7258 49.146 27.4531C49.146 16.6903 57.8709 7.96533 68.6337 7.96533C71.7854 7.96533 74.7596 8.71813 77.3939 10.0465L84.1832 5.65883C79.7987 2.52503 74.4339 0.674927 68.6338 0.674927C53.8447 0.674927 41.8557 12.6639 41.8557 27.4531C41.8557 33.4057 43.801 38.9016 47.0872 43.3466C48.3566 41.0549 49.8975 38.9358 51.6663 37.0299C51.6663 37.0299 54.3075 34.2738 56.3313 32.8882C61.6452 29.0168 68.1852 26.727 75.2631 26.727H75.2629Z" fill="white"/>
<path d="M288.492 14.25V10.2234H287.05V9.48804H290.769V10.2234H289.327V14.25H288.492H288.492Z" fill="white"/>
<path d="M295.591 14.25V10.7161L294.127 14.25H293.77L292.314 10.7161V14.25H291.478V9.48804H292.656L293.949 12.6222L295.248 9.48804H296.426V14.25H295.591H295.591Z" fill="white"/>
<path d="M318.878 9.36902H315.575V45.1228H318.878V9.36902Z" fill="url(#paint2_linear_3109_3307)"/>
<path d="M345.723 44.9809H370.219V39.0727H352.366V29.8589H369.851V23.9502H352.366V15.3667H370.219V9.4585H345.723V44.9809Z" fill="white"/>
<path d="M397.231 8.88074C386.71 8.88074 379.075 16.6043 379.075 27.2459C379.075 37.8875 386.71 45.6106 397.231 45.6106C407.751 45.6106 415.385 37.887 415.385 27.2459C415.385 16.6048 407.75 8.88074 397.231 8.88074V8.88074ZM408.584 27.2459C408.584 34.5496 403.915 39.6507 397.231 39.6507C390.546 39.6507 385.876 34.5496 385.876 27.2459C385.876 19.9422 390.545 14.8416 397.231 14.8416C403.916 14.8416 408.584 19.9427 408.584 27.2459V27.2459Z" fill="white"/>
<path d="M449.657 9.4585V33.77L432.204 9.5625L432.129 9.4585H425.451V44.9809H432.093V19.9907L449.913 44.876L449.987 44.9809H456.299V9.4585H449.657Z" fill="white"/>
</g>
<path d="M233.943 80.6749H237.777V73.3039L244.662 62.6659H240.288L235.86 69.9019L231.378 62.6659H227.004L233.943 73.3039V80.6749Z" fill="#994FF8"/>
<path d="M249.023 73.4929C249.023 77.9209 251.588 80.9989 257.096 80.9989C262.55 80.9989 265.115 77.9479 265.115 73.4659V62.6659H261.227V73.3579C261.227 75.8689 259.85 77.5969 257.096 77.5969C254.288 77.5969 252.911 75.8689 252.911 73.3579V62.6659H249.023V73.4929Z" fill="#994FF8"/>
<path d="M287.027 80.6749H290.888V62.6659H285.488L281.114 73.8979L276.74 62.6659H271.367V80.6749H275.201V67.7149L280.277 80.6749H281.951L287.027 67.7149V80.6749Z" fill="#994FF8"/>
<path d="M309.774 80.6749H313.959L307.02 62.6659H302.214L295.248 80.6749H299.46L300.594 77.5699H308.64L309.774 80.6749ZM304.617 65.9869L307.587 74.2489H301.62L304.617 65.9869Z" fill="#994FF8"/>
<path d="M332.088 80.6749H335.949V66.0409H341.187V62.6659H326.823V66.0409H332.088V80.6749Z" fill="#994FF8"/>
<path d="M346.345 80.6749H359.089V77.3539H350.179V73.1689H358.9V69.8749H350.179V65.9599H359.089V62.6659H346.345V80.6749Z" fill="#994FF8"/>
<path d="M363.544 78.1369C365.245 79.8379 367.729 80.9989 371.185 80.9989C376.045 80.9989 378.394 78.5149 378.394 75.2209C378.394 71.2249 374.614 70.3339 371.644 69.6589C369.565 69.1729 368.053 68.7949 368.053 67.5799C368.053 66.4999 368.971 65.7439 370.699 65.7439C372.454 65.7439 374.398 66.3649 375.856 67.7149L377.989 64.9069C376.207 63.2599 373.831 62.3959 370.969 62.3959C366.73 62.3959 364.138 64.8259 364.138 67.8229C364.138 71.8459 367.918 72.6559 370.861 73.3309C372.94 73.8169 374.506 74.2759 374.506 75.6259C374.506 76.6519 373.48 77.6509 371.374 77.6509C368.89 77.6509 366.919 76.5439 365.65 75.2209L363.544 78.1369Z" fill="#994FF8"/>
<path d="M387.649 80.6749H391.51V66.0409H396.748V62.6659H382.384V66.0409H387.649V80.6749Z" fill="#994FF8"/>
<path d="M414.326 80.6749H418.025V62.6659H414.191V74.3299L405.848 62.6659H401.906V80.6749H405.74V68.5789L414.326 80.6749Z" fill="#994FF8"/>
<path d="M424.276 80.6749H437.02V77.3539H428.11V73.1689H436.831V69.8749H428.11V65.9599H437.02V62.6659H424.276V80.6749Z" fill="#994FF8"/>
<path d="M446.875 80.6749H450.736V66.0409H455.974V62.6659H441.61V66.0409H446.875V80.6749Z" fill="#994FF8"/>
<defs>
<radialGradient id="paint0_radial_3109_3307" cx="0" cy="0" r="1" gradientUnits="userSpaceOnUse" gradientTransform="translate(90.407 11.837) scale(45.0522 45.0522)">
<stop offset="0.0986" stop-color="#26DB8D"/>
<stop offset="0.2628" stop-color="#22D299"/>
<stop offset="0.5637" stop-color="#19BABA"/>
<stop offset="0.886" stop-color="#0E9DE5"/>
</radialGradient>
<radialGradient id="paint1_radial_3109_3307" cx="0" cy="0" r="1" gradientUnits="userSpaceOnUse" gradientTransform="translate(90.407 11.837) scale(45.0522)">
<stop offset="0.0986" stop-color="#26DB8D"/>
<stop offset="0.2628" stop-color="#22D299"/>
<stop offset="0.5637" stop-color="#19BABA"/>
<stop offset="0.886" stop-color="#0E9DE5"/>
</radialGradient>
<linearGradient id="paint2_linear_3109_3307" x1="317.227" y1="10.9478" x2="317.227" y2="40.5035" gradientUnits="userSpaceOnUse">
<stop offset="0.0982" stop-color="#26DB8D"/>
<stop offset="0.2625" stop-color="#22D299"/>
<stop offset="0.5635" stop-color="#19BABA"/>
<stop offset="0.886" stop-color="#0E9DE5"/>
</linearGradient>
<clipPath id="clip0_3109_3307">
<rect width="455.65" height="53.5564" fill="white" transform="translate(0.649658 0.674927)"/>
</clipPath>
</defs>
</svg>
