<svg width="228" height="40.5" viewBox="0 0 456 54" fill="none" xmlns="http://www.w3.org/2000/svg">
<g clip-path="url(#clip0_7017_5786)">
<path d="M20.3041 23.6598H6.6053V8.9895H0V44.5669H6.6053V29.7576H20.3041V44.5669H26.9105V8.9895H20.3041V23.6598Z" fill="#041742"/>
<path d="M129.187 29.3225C131.081 27.2343 132.124 24.2761 132.124 20.9928C132.124 17.6322 131.108 14.7355 129.193 12.6232C127.73 10.9652 124.979 8.9894 120.167 8.9894H109.367V44.5669H115.974V32.9503H118.978L127.633 44.5669H135.238L125.728 31.8228C127.367 31.0977 128.498 30.0887 129.187 29.3226L129.187 29.3225ZM126.028 20.9928C126.028 22.8477 125.57 24.2773 124.655 25.2574C123.692 26.3474 122.181 26.8997 120.167 26.8997H115.974V15.086H120.167C122.208 15.086 123.718 15.6238 124.667 16.6944C125.57 17.6624 126.028 19.1076 126.028 20.9928Z" fill="#041742"/>
<path d="M156.383 8.9895H149.776V44.5669H156.383V8.9895Z" fill="#041742"/>
<path d="M175.606 8.9895V15.5948H188.916L172.477 44.5669H200.697V37.9604H184.26L200.697 8.9895H175.606Z" fill="#041742"/>
<path d="M216.386 44.5669H238.219V38.4703H222.993V29.0627H235.534V22.9662H222.993V15.0401H238.219V8.9895H216.386V44.5669Z" fill="#041742"/>
<path d="M275.631 31.279L258.908 8.9895H254.065V44.5669H260.671V22.229L277.48 44.5669H282.284V8.9895H275.631V31.279Z" fill="#041742"/>
<path d="M89.7537 11.1941L89.752 11.1986L85.3721 17.9817C86.712 20.625 87.4719 23.612 87.4719 26.7782C87.4719 37.541 78.7469 46.266 67.9841 46.266C64.822 46.266 61.8386 45.5081 59.1979 44.1715L52.4127 48.5569C56.8012 51.7002 62.1743 53.5565 67.9841 53.5565C82.7733 53.5565 94.7624 41.5675 94.7624 26.7783C94.7624 20.9629 92.9027 15.585 89.7538 11.1942L89.7537 11.1941Z" fill="url(#paint0_radial_7017_5786)"/>
<path d="M67.9841 40.1884C74.5766 40.1884 80.0574 35.444 81.208 29.1841C79.1215 28.7379 76.9586 28.4977 74.7389 28.4977C68.0553 28.4977 61.8743 30.634 56.8267 34.2512C59.2431 37.8328 63.3384 40.1883 67.9841 40.1883V40.1884Z" fill="url(#paint1_radial_7017_5786)"/>
<path d="M74.6133 26.0521C76.9543 26.0521 79.2347 26.3083 81.4338 26.7829C81.4338 26.7813 81.4339 26.7798 81.4339 26.7782C81.4339 19.35 75.4121 13.3284 67.9841 13.3284C60.5561 13.3284 54.5343 19.3501 54.5343 26.7782C54.5343 27.3885 54.5798 27.9876 54.6589 28.5761C54.6575 28.5772 54.6563 28.5779 54.6549 28.579C51.2679 31.1512 49.6618 33.1896 49.6108 33.2548C48.8939 31.2282 48.4964 29.0509 48.4964 26.7782C48.4964 16.0154 57.2213 7.2904 67.9841 7.2904C71.1358 7.2904 74.11 8.0432 76.7443 9.3716L83.5336 4.9839C79.1491 1.8501 73.7843 0 67.9842 0C53.1951 0 41.2061 11.989 41.2061 26.7782C41.2061 32.7308 43.1514 38.2267 46.4376 42.6717C47.707 40.38 49.2479 38.2609 51.0167 36.355C51.0167 36.355 53.6579 33.5989 55.6817 32.2133C60.9956 28.3419 67.5356 26.0521 74.6135 26.0521H74.6133Z" fill="#041742"/>
<path d="M287.842 13.5751V9.5485H286.4V8.8131H290.12V9.5485H288.678V13.5751H287.842H287.842Z" fill="#041742"/>
<path d="M294.941 13.5751V10.0412L293.477 13.5751H293.12L291.664 10.0412V13.5751H290.829V8.8131H292.007L293.299 11.9473L294.598 8.8131H295.777V13.5751H294.941H294.941Z" fill="#041742"/>
<path d="M318.228 8.69411H314.925V44.4479H318.228V8.69411Z" fill="url(#paint2_linear_7017_5786)"/>
<path d="M345.073 44.3059H369.569V38.3977H351.716V29.1839H369.201V23.2752H351.716V14.6917H369.569V8.78349H345.073V44.3059Z" fill="#041742"/>
<path d="M396.581 8.2058C386.061 8.2058 378.425 15.9294 378.425 26.571C378.425 37.2126 386.061 44.9357 396.581 44.9357C407.102 44.9357 414.736 37.2121 414.736 26.571C414.736 15.9299 407.101 8.2058 396.581 8.2058V8.2058ZM407.935 26.571C407.935 33.8747 403.266 38.9758 396.581 38.9758C389.897 38.9758 385.227 33.8747 385.227 26.571C385.227 19.2673 389.896 14.1667 396.581 14.1667C403.267 14.1667 407.935 19.2678 407.935 26.571V26.571Z" fill="#041742"/>
<path d="M449.007 8.78349V33.095L431.554 8.88749L431.48 8.78349H424.801V44.3059H431.444V19.3157L449.263 44.201L449.337 44.3059H455.65V8.78349H449.007Z" fill="#041742"/>
</g>
<defs>
<radialGradient id="paint0_radial_7017_5786" cx="0" cy="0" r="1" gradientUnits="userSpaceOnUse" gradientTransform="translate(89.7574 11.1621) scale(45.0522 45.0522)">
<stop offset="0.0986" stop-color="#26DB8D"/>
<stop offset="0.2628" stop-color="#22D299"/>
<stop offset="0.5637" stop-color="#19BABA"/>
<stop offset="0.886" stop-color="#0E9DE5"/>
</radialGradient>
<radialGradient id="paint1_radial_7017_5786" cx="0" cy="0" r="1" gradientUnits="userSpaceOnUse" gradientTransform="translate(89.7574 11.1621) scale(45.0522)">
<stop offset="0.0986" stop-color="#26DB8D"/>
<stop offset="0.2628" stop-color="#22D299"/>
<stop offset="0.5637" stop-color="#19BABA"/>
<stop offset="0.886" stop-color="#0E9DE5"/>
</radialGradient>
<linearGradient id="paint2_linear_7017_5786" x1="316.577" y1="10.2729" x2="316.577" y2="39.8286" gradientUnits="userSpaceOnUse">
<stop offset="0.0982" stop-color="#26DB8D"/>
<stop offset="0.2625" stop-color="#22D299"/>
<stop offset="0.5635" stop-color="#19BABA"/>
<stop offset="0.886" stop-color="#0E9DE5"/>
</linearGradient>
<clipPath id="clip0_7017_5786">
<rect width="455.65" height="53.5564" fill="white"/>
</clipPath>
</defs>
</svg>
