<svg width="228" height="40.5" viewBox="0 0 456 81" fill="none" xmlns="http://www.w3.org/2000/svg">
<g clip-path="url(#clip0_3109_3082)">
<path d="M20.3041 24.3347H6.6053V9.66443H0V45.2418H6.6053V30.4325H20.3041V45.2418H26.9105V9.66443H20.3041V24.3347Z" fill="#041742"/>
<path d="M129.186 29.9974C131.081 27.9092 132.124 24.951 132.124 21.6677C132.124 18.3071 131.108 15.4104 129.192 13.2981C127.73 11.6401 124.979 9.66431 120.167 9.66431H109.367V45.2418H115.973V33.6252H118.978L127.632 45.2418H135.238L125.728 32.4977C127.367 31.7726 128.498 30.7636 129.187 29.9975L129.186 29.9974ZM126.028 21.6677C126.028 23.5226 125.57 24.9522 124.655 25.9323C123.692 27.0223 122.181 27.5746 120.167 27.5746H115.973V15.7609H120.167C122.208 15.7609 123.718 16.2987 124.667 17.3693C125.57 18.3373 126.028 19.7825 126.028 21.6677Z" fill="#041742"/>
<path d="M156.383 9.66443H149.776V45.2418H156.383V9.66443Z" fill="#041742"/>
<path d="M175.606 9.66443V16.2697H188.916L172.477 45.2418H200.697V38.6353H184.26L200.697 9.66443H175.606Z" fill="#041742"/>
<path d="M216.386 45.2418H238.219V39.1452H222.993V29.7376H235.534V23.6411H222.993V15.715H238.219V9.66443H216.386V45.2418Z" fill="#041742"/>
<path d="M275.631 31.9539L258.908 9.66443H254.065V45.2418H260.671V22.9039L277.48 45.2418H282.284V9.66443H275.631V31.9539Z" fill="#041742"/>
<path d="M89.7536 11.869L89.7519 11.8735L85.372 18.6566C86.7119 21.2999 87.4718 24.2869 87.4718 27.4531C87.4718 38.2159 78.7468 46.9409 67.984 46.9409C64.8219 46.9409 61.8385 46.183 59.1978 44.8464L52.4126 49.2318C56.8011 52.3751 62.1742 54.2314 67.984 54.2314C82.7732 54.2314 94.7623 42.2424 94.7623 27.4532C94.7623 21.6378 92.9026 16.2599 89.7537 11.8691L89.7536 11.869Z" fill="url(#paint0_radial_3109_3082)"/>
<path d="M67.9841 40.8633C74.5766 40.8633 80.0574 36.1189 81.208 29.859C79.1215 29.4128 76.9586 29.1726 74.7389 29.1726C68.0553 29.1726 61.8743 31.3089 56.8267 34.9261C59.2431 38.5077 63.3384 40.8632 67.9841 40.8632V40.8633Z" fill="url(#paint1_radial_3109_3082)"/>
<path d="M74.6133 26.727C76.9543 26.727 79.2347 26.9832 81.4338 27.4578C81.4338 27.4562 81.4339 27.4547 81.4339 27.4531C81.4339 20.0249 75.4121 14.0033 67.9841 14.0033C60.5561 14.0033 54.5343 20.025 54.5343 27.4531C54.5343 28.0634 54.5798 28.6625 54.6589 29.251C54.6575 29.2521 54.6563 29.2528 54.6549 29.2539C51.2679 31.8261 49.6618 33.8645 49.6108 33.9297C48.8939 31.9031 48.4964 29.7258 48.4964 27.4531C48.4964 16.6903 57.2213 7.96533 67.9841 7.96533C71.1358 7.96533 74.11 8.71813 76.7443 10.0465L83.5336 5.65883C79.1491 2.52503 73.7843 0.674927 67.9842 0.674927C53.1951 0.674927 41.2061 12.6639 41.2061 27.4531C41.2061 33.4057 43.1514 38.9016 46.4376 43.3466C47.707 41.0549 49.2479 38.9358 51.0167 37.0299C51.0167 37.0299 53.6579 34.2738 55.6817 32.8882C60.9956 29.0168 67.5356 26.727 74.6135 26.727H74.6133Z" fill="#041742"/>
<path d="M287.842 14.25V10.2234H286.4V9.48804H290.119V10.2234H288.678V14.25H287.842H287.842Z" fill="#041742"/>
<path d="M294.941 14.25V10.7161L293.477 14.25H293.12L291.664 10.7161V14.25H290.829V9.48804H292.007L293.299 12.6222L294.598 9.48804H295.777V14.25H294.941H294.941Z" fill="#041742"/>
<path d="M318.228 9.36902H314.925V45.1228H318.228V9.36902Z" fill="url(#paint2_linear_3109_3082)"/>
<path d="M345.073 44.9809H369.569V39.0727H351.716V29.8589H369.201V23.9502H351.716V15.3667H369.569V9.4585H345.073V44.9809Z" fill="#041742"/>
<path d="M396.581 8.88074C386.061 8.88074 378.425 16.6043 378.425 27.2459C378.425 37.8875 386.061 45.6106 396.581 45.6106C407.102 45.6106 414.735 37.887 414.735 27.2459C414.735 16.6048 407.101 8.88074 396.581 8.88074V8.88074ZM407.935 27.2459C407.935 34.5496 403.266 39.6507 396.581 39.6507C389.897 39.6507 385.227 34.5496 385.227 27.2459C385.227 19.9422 389.896 14.8416 396.581 14.8416C403.267 14.8416 407.935 19.9427 407.935 27.2459V27.2459Z" fill="#041742"/>
<path d="M449.007 9.4585V33.77L431.554 9.5625L431.48 9.4585H424.801V44.9809H431.444V19.9907L449.263 44.876L449.337 44.9809H455.65V9.4585H449.007Z" fill="#041742"/>
</g>
<path d="M233.293 80.6749H237.127V73.3039L244.012 62.6659H239.638L235.21 69.9019L230.728 62.6659H226.354L233.293 73.3039V80.6749Z" fill="#5914B2"/>
<path d="M248.374 73.4929C248.374 77.9209 250.939 80.9989 256.447 80.9989C261.901 80.9989 264.466 77.9479 264.466 73.4659V62.6659H260.578V73.3579C260.578 75.8689 259.201 77.5969 256.447 77.5969C253.639 77.5969 252.262 75.8689 252.262 73.3579V62.6659H248.374V73.4929Z" fill="#5914B2"/>
<path d="M286.377 80.6749H290.238V62.6659H284.838L280.464 73.8979L276.09 62.6659H270.717V80.6749H274.551V67.7149L279.627 80.6749H281.301L286.377 67.7149V80.6749Z" fill="#5914B2"/>
<path d="M309.124 80.6749H313.309L306.37 62.6659H301.564L294.598 80.6749H298.81L299.944 77.5699H307.99L309.124 80.6749ZM303.967 65.9869L306.937 74.2489H300.97L303.967 65.9869Z" fill="#5914B2"/>
<path d="M331.438 80.6749H335.299V66.0409H340.537V62.6659H326.173V66.0409H331.438V80.6749Z" fill="#5914B2"/>
<path d="M345.695 80.6749H358.439V77.3539H349.529V73.1689H358.25V69.8749H349.529V65.9599H358.439V62.6659H345.695V80.6749Z" fill="#5914B2"/>
<path d="M362.894 78.1369C364.595 79.8379 367.079 80.9989 370.535 80.9989C375.395 80.9989 377.744 78.5149 377.744 75.2209C377.744 71.2249 373.964 70.3339 370.994 69.6589C368.915 69.1729 367.403 68.7949 367.403 67.5799C367.403 66.4999 368.321 65.7439 370.049 65.7439C371.804 65.7439 373.748 66.3649 375.206 67.7149L377.339 64.9069C375.557 63.2599 373.181 62.3959 370.319 62.3959C366.08 62.3959 363.488 64.8259 363.488 67.8229C363.488 71.8459 367.268 72.6559 370.211 73.3309C372.29 73.8169 373.856 74.2759 373.856 75.6259C373.856 76.6519 372.83 77.6509 370.724 77.6509C368.24 77.6509 366.269 76.5439 365 75.2209L362.894 78.1369Z" fill="#5914B2"/>
<path d="M386.999 80.6749H390.86V66.0409H396.098V62.6659H381.734V66.0409H386.999V80.6749Z" fill="#5914B2"/>
<path d="M413.676 80.6749H417.375V62.6659H413.541V74.3299L405.198 62.6659H401.256V80.6749H405.09V68.5789L413.676 80.6749Z" fill="#5914B2"/>
<path d="M423.626 80.6749H436.37V77.3539H427.46V73.1689H436.181V69.8749H427.46V65.9599H436.37V62.6659H423.626V80.6749Z" fill="#5914B2"/>
<path d="M446.225 80.6749H450.086V66.0409H455.324V62.6659H440.96V66.0409H446.225V80.6749Z" fill="#5914B2"/>
<defs>
<radialGradient id="paint0_radial_3109_3082" cx="0" cy="0" r="1" gradientUnits="userSpaceOnUse" gradientTransform="translate(89.7573 11.837) scale(45.0522 45.0522)">
<stop offset="0.0986" stop-color="#26DB8D"/>
<stop offset="0.2628" stop-color="#22D299"/>
<stop offset="0.5637" stop-color="#19BABA"/>
<stop offset="0.886" stop-color="#0E9DE5"/>
</radialGradient>
<radialGradient id="paint1_radial_3109_3082" cx="0" cy="0" r="1" gradientUnits="userSpaceOnUse" gradientTransform="translate(89.7574 11.837) scale(45.0522)">
<stop offset="0.0986" stop-color="#26DB8D"/>
<stop offset="0.2628" stop-color="#22D299"/>
<stop offset="0.5637" stop-color="#19BABA"/>
<stop offset="0.886" stop-color="#0E9DE5"/>
</radialGradient>
<linearGradient id="paint2_linear_3109_3082" x1="316.577" y1="10.9478" x2="316.577" y2="40.5035" gradientUnits="userSpaceOnUse">
<stop offset="0.0982" stop-color="#26DB8D"/>
<stop offset="0.2625" stop-color="#22D299"/>
<stop offset="0.5635" stop-color="#19BABA"/>
<stop offset="0.886" stop-color="#0E9DE5"/>
</linearGradient>
<clipPath id="clip0_3109_3082">
<rect width="455.65" height="53.5564" fill="white" transform="translate(0 0.674927)"/>
</clipPath>
</defs>
</svg>
