<?xml version="1.0" encoding="UTF-8" standalone="no"?>
<svg
   width="255.44783"
   height="30.943821"
   viewBox="0 0 255.44783 30.943821"
   fill="none"
   version="1.1"
   id="svg2585"
   sodipodi:docname="HEON_logo_dark.svg"
   inkscape:version="1.2.2 (b0a84865, 2022-12-01)"
   xmlns:inkscape="http://www.inkscape.org/namespaces/inkscape"
   xmlns:sodipodi="http://sodipodi.sourceforge.net/DTD/sodipodi-0.dtd"
   xmlns="http://www.w3.org/2000/svg"
   xmlns:svg="http://www.w3.org/2000/svg">
  <sodipodi:namedview
     id="namedview2587"
     pagecolor="#ffffff"
     bordercolor="#000000"
     borderopacity="0.25"
     inkscape:showpageshadow="2"
     inkscape:pageopacity="0.0"
     inkscape:pagecheckerboard="0"
     inkscape:deskcolor="#d1d1d1"
     showgrid="false"
     inkscape:zoom="2.7324561"
     inkscape:cx="228"
     inkscape:cy="-2.3788122"
     inkscape:window-width="1390"
     inkscape:window-height="1205"
     inkscape:window-x="0"
     inkscape:window-y="25"
     inkscape:window-maximized="0"
     inkscape:current-layer="svg2585" />
  <g
     clip-path="url(#clip0_1109_921)"
     id="g2551"
     transform="scale(0.56106662)">
    <path
       d="M 20.3041,23.6598 H 6.6053 V 8.9895 H 0 V 44.5669 H 6.6053 V 29.7576 h 13.6988 v 14.8093 h 6.6064 V 8.9895 h -6.6064 z"
       fill="#041742"
       id="path2521" />
    <path
       d="m 129.186,29.3225 c 1.895,-2.0882 2.938,-5.0464 2.938,-8.3297 0,-3.3606 -1.016,-6.2573 -2.932,-8.3696 -1.462,-1.658 -4.213,-3.63382 -9.025,-3.63382 h -10.8 V 44.5669 h 6.606 V 32.9503 h 3.005 l 8.654,11.6166 h 7.606 l -9.51,-12.7441 c 1.639,-0.7251 2.77,-1.7341 3.459,-2.5002 z m -3.158,-8.3297 c 0,1.8549 -0.458,3.2845 -1.373,4.2646 -0.963,1.09 -2.474,1.6423 -4.488,1.6423 h -4.194 V 15.086 h 4.194 c 2.041,0 3.551,0.5378 4.5,1.6084 0.903,0.968 1.361,2.4132 1.361,4.2984 z"
       fill="#041742"
       id="path2523" />
    <path
       d="m 156.383,8.9895 h -6.607 v 35.5774 h 6.607 z"
       fill="#041742"
       id="path2525" />
    <path
       d="m 175.606,8.9895 v 6.6053 h 13.31 l -16.439,28.9721 h 28.22 V 37.9604 H 184.26 L 200.697,8.9895 Z"
       fill="#041742"
       id="path2527" />
    <path
       d="m 216.386,44.5669 h 21.833 v -6.0966 h -15.226 v -9.4076 h 12.541 v -6.0965 h -12.541 v -7.9261 h 15.226 V 8.9895 h -21.833 z"
       fill="#041742"
       id="path2529" />
    <path
       d="M 275.631,31.279 258.908,8.9895 h -4.843 v 35.5774 h 6.606 V 22.229 l 16.809,22.3379 h 4.804 V 8.9895 h -6.653 z"
       fill="#041742"
       id="path2531" />
    <path
       d="m 89.7536,11.1941 -0.0017,0.0045 -4.3799,6.7831 c 1.3399,2.6433 2.0998,5.6303 2.0998,8.7965 0,10.7628 -8.725,19.4878 -19.4878,19.4878 -3.1621,0 -6.1455,-0.7579 -8.7862,-2.0945 l -6.7852,4.3854 c 4.3885,3.1433 9.7616,4.9996 15.5714,4.9996 14.7892,0 26.7783,-11.989 26.7783,-26.7782 0,-5.8154 -1.8597,-11.1933 -5.0086,-15.5841 z"
       fill="url(#paint0_radial_1109_921)"
       id="path2533"
       style="fill:url(#paint0_radial_1109_921)" />
    <path
       d="m 67.9841,40.1884 c 6.5925,0 12.0733,-4.7444 13.2239,-11.0043 -2.0865,-0.4462 -4.2494,-0.6864 -6.4691,-0.6864 -6.6836,0 -12.8646,2.1363 -17.9122,5.7535 2.4164,3.5816 6.5117,5.9371 11.1574,5.9371 z"
       fill="url(#paint1_radial_1109_921)"
       id="path2535"
       style="fill:url(#paint1_radial_1109_921)" />
    <path
       d="m 74.6133,26.0521 c 2.341,0 4.6214,0.2562 6.8205,0.7308 0,-0.0016 10e-5,-0.0031 10e-5,-0.0047 0,-7.4282 -6.0218,-13.4498 -13.4498,-13.4498 -7.428,0 -13.4498,6.0217 -13.4498,13.4498 0,0.6103 0.0455,1.2094 0.1246,1.7979 -0.0014,0.0011 -0.0026,0.0018 -0.004,0.0029 -3.387,2.5722 -4.9931,4.6106 -5.0441,4.6758 -0.7169,-2.0266 -1.1144,-4.2039 -1.1144,-6.4766 0,-10.7628 8.7249,-19.4878 19.4877,-19.4878 3.1517,0 6.1259,0.7528 8.7602,2.0812 L 83.5336,4.9839 C 79.1491,1.8501 73.7843,0 67.9842,0 53.1951,0 41.2061,11.989 41.2061,26.7782 c 0,5.9526 1.9453,11.4485 5.2315,15.8935 1.2694,-2.2917 2.8103,-4.4108 4.5791,-6.3167 0,0 2.6412,-2.7561 4.665,-4.1417 5.3139,-3.8714 11.8539,-6.1612 18.9318,-6.1612 z"
       fill="#041742"
       id="path2537" />
    <path
       d="M 287.842,13.5751 V 9.54851 H 286.4 v -0.7354 h 3.719 v 0.7354 h -1.441 v 4.02659 z"
       fill="#041742"
       id="path2539" />
    <path
       d="m 294.941,13.5751 v -3.5339 l -1.464,3.5339 h -0.357 l -1.456,-3.5339 v 3.5339 h -0.835 V 8.81311 h 1.178 l 1.292,3.13419 1.299,-3.13419 h 1.179 v 4.76199 z"
       fill="#041742"
       id="path2541" />
    <path
       d="m 318.228,8.69409 h -3.303 V 44.4479 h 3.303 z"
       fill="url(#paint2_linear_1109_921)"
       id="path2543"
       style="fill:url(#paint2_linear_1109_921)" />
    <path
       d="m 345.073,44.3059 h 24.496 v -5.9082 h -17.853 v -9.2138 h 17.485 v -5.9087 h -17.485 v -8.5835 h 17.853 V 8.78351 h -24.496 z"
       fill="#041742"
       id="path2545" />
    <path
       d="m 396.581,8.20581 c -10.52,0 -18.156,7.72359 -18.156,18.36519 0,10.6416 7.636,18.3647 18.156,18.3647 10.521,0 18.154,-7.7236 18.154,-18.3647 0,-10.6411 -7.634,-18.36519 -18.154,-18.36519 z M 407.935,26.571 c 0,7.3037 -4.669,12.4048 -11.354,12.4048 -6.684,0 -11.354,-5.1011 -11.354,-12.4048 0,-7.3037 4.669,-12.4043 11.354,-12.4043 6.686,0 11.354,5.1011 11.354,12.4043 z"
       fill="#041742"
       id="path2547" />
    <path
       d="M 449.007,8.78351 V 33.095 L 431.554,8.88751 431.48,8.78351 h -6.679 V 44.3059 h 6.643 V 19.3157 l 17.819,24.8853 0.074,0.1049 h 6.313 V 8.78351 Z"
       fill="#041742"
       id="path2549" />
  </g>
  <defs
     id="defs2583">
    <radialGradient
       id="paint0_radial_1109_921"
       cx="0"
       cy="0"
       r="1"
       gradientUnits="userSpaceOnUse"
       gradientTransform="matrix(45.0522,0,0,45.0522,89.7573,11.1621)">
      <stop
         offset="0.0986"
         stop-color="#26DB8D"
         id="stop2553" />
      <stop
         offset="0.2628"
         stop-color="#22D299"
         id="stop2555" />
      <stop
         offset="0.5637"
         stop-color="#19BABA"
         id="stop2557" />
      <stop
         offset="0.886"
         stop-color="#0E9DE5"
         id="stop2559" />
    </radialGradient>
    <radialGradient
       id="paint1_radial_1109_921"
       cx="0"
       cy="0"
       r="1"
       gradientUnits="userSpaceOnUse"
       gradientTransform="matrix(45.0522,0,0,45.0522,89.7574,11.1621)">
      <stop
         offset="0.0986"
         stop-color="#26DB8D"
         id="stop2562" />
      <stop
         offset="0.2628"
         stop-color="#22D299"
         id="stop2564" />
      <stop
         offset="0.5637"
         stop-color="#19BABA"
         id="stop2566" />
      <stop
         offset="0.886"
         stop-color="#0E9DE5"
         id="stop2568" />
    </radialGradient>
    <linearGradient
       id="paint2_linear_1109_921"
       x1="316.577"
       y1="10.2729"
       x2="316.577"
       y2="39.828602"
       gradientUnits="userSpaceOnUse">
      <stop
         offset="0.0982"
         stop-color="#26DB8D"
         id="stop2571" />
      <stop
         offset="0.2625"
         stop-color="#22D299"
         id="stop2573" />
      <stop
         offset="0.5635"
         stop-color="#19BABA"
         id="stop2575" />
      <stop
         offset="0.886"
         stop-color="#0E9DE5"
         id="stop2577" />
    </linearGradient>
    <clipPath
       id="clip0_1109_921">
      <rect
         width="455.64999"
         height="53.5564"
         fill="#ffffff"
         id="rect2580"
         x="0"
         y="0" />
    </clipPath>
  </defs>
</svg>
