<?xml version="1.0" encoding="UTF-8" standalone="no"?>
<svg
   viewBox="0 0 153.06305 41.705764"
   version="1.1"
   id="svg257"
   sodipodi:docname="horizen.svg"
   width="153.06305"
   height="41.705765"
   inkscape:version="1.2.2 (b0a84865, 2022-12-01)"
   xmlns:inkscape="http://www.inkscape.org/namespaces/inkscape"
   xmlns:sodipodi="http://sodipodi.sourceforge.net/DTD/sodipodi-0.dtd"
   xmlns:xlink="http://www.w3.org/1999/xlink"
   xmlns="http://www.w3.org/2000/svg"
   xmlns:svg="http://www.w3.org/2000/svg"
   xmlns:rdf="http://www.w3.org/1999/02/22-rdf-syntax-ns#"
   xmlns:cc="http://creativecommons.org/ns#"
   xmlns:dc="http://purl.org/dc/elements/1.1/">
  <sodipodi:namedview
     id="namedview1710"
     pagecolor="#ffffff"
     bordercolor="#000000"
     borderopacity="0.25"
     inkscape:showpageshadow="2"
     inkscape:pageopacity="0.0"
     inkscape:pagecheckerboard="0"
     inkscape:deskcolor="#d1d1d1"
     showgrid="false"
     inkscape:zoom="2.1819526"
     inkscape:cx="155.59458"
     inkscape:cy="54.080002"
     inkscape:window-width="1309"
     inkscape:window-height="456"
     inkscape:window-x="0"
     inkscape:window-y="38"
     inkscape:window-maximized="0"
     inkscape:current-layer="svg257" />
  <defs
     id="defs227">
    <style
       id="style216">.cls-1{fill:#fff;}.cls-2{fill:#041742;}.cls-3{fill:url(#radial-gradient);}</style>
    <radialGradient
       id="radial-gradient"
       cx="106.31"
       cy="39.360001"
       r="38.259998"
       gradientUnits="userSpaceOnUse">
      <stop
         offset="0.1"
         stop-color="#26db8d"
         id="stop218" />
      <stop
         offset="0.26"
         stop-color="#23d29a"
         id="stop220" />
      <stop
         offset="0.56"
         stop-color="#1abbbb"
         id="stop222" />
      <stop
         offset="0.89"
         stop-color="#0e9de5"
         id="stop224" />
    </radialGradient>
    <radialGradient
       xlink:href="#radial-gradient"
       id="radialGradient1135"
       gradientUnits="userSpaceOnUse"
       cx="106.31"
       cy="39.360001"
       r="38.259998" />
    <radialGradient
       xlink:href="#radial-gradient"
       id="radialGradient1137"
       gradientUnits="userSpaceOnUse"
       cx="106.31"
       cy="39.360001"
       r="38.259998" />
    <clipPath
       clipPathUnits="userSpaceOnUse"
       id="clipPath1240">
      <rect
         style="fill:#0000ff"
         id="rect1242"
         width="274.93735"
         height="69.408798"
         x="17.445732"
         y="15.515862" />
    </clipPath>
  </defs>
  <title
     id="title229">Asset 2</title>
  <g
     id="Layer_2"
     data-name="Layer 2"
     transform="matrix(0.54898689,0,0,0.54898689,-7.7463362,-7.2418176)"
     clip-path="url(#clipPath1240)">
    <g
       id="Layer_1-2"
       data-name="Layer 1">
      <rect
         class="cls-1"
         width="310.72"
         height="108.16"
         id="rect231"
         x="0"
         y="0" />
      <polygon
         class="cls-2"
         points="35.7,49.97 35.7,37.52 30.1,37.52 30.1,67.73 35.7,67.73 35.7,55.15 47.34,55.15 47.34,67.73 52.95,67.73 52.95,37.52 47.34,37.52 47.34,49.97 "
         id="polygon233" />
      <path
         class="cls-2"
         d="m 139.79,54.78 a 10.42,10.42 0 0 0 2.5,-7.07 10.42,10.42 0 0 0 -2.49,-7.11 c -1.24,-1.41 -3.58,-3.08 -7.67,-3.08 H 123 v 30.21 h 5.61 v -9.87 h 2.55 l 7.35,9.87 h 6.46 L 136.86,56.9 a 8.55,8.55 0 0 0 2.93,-2.12 z m -2.68,-7.07 a 5.12,5.12 0 0 1 -1.17,3.62 4.82,4.82 0 0 1 -3.81,1.39 h -3.56 v -10 h 3.56 a 4.85,4.85 0 0 1 3.87,1.34 5.18,5.18 0 0 1 1.11,3.65 z"
         id="path235" />
      <rect
         class="cls-2"
         x="157.28"
         y="37.52"
         width="5.6100001"
         height="30.209999"
         id="rect237" />
      <polygon
         class="cls-2"
         points="200.51,62.12 186.56,62.12 200.51,37.52 179.21,37.52 179.21,43.13 190.51,43.13 176.55,67.73 200.51,67.73 "
         id="polygon239" />
      <polygon
         class="cls-2"
         points="232.38,67.73 232.38,62.55 219.45,62.55 219.45,54.56 230.09,54.56 230.09,49.38 219.45,49.38 219.45,42.65 232.38,42.65 232.38,37.52 213.84,37.52 213.84,67.73 "
         id="polygon241" />
      <polygon
         class="cls-2"
         points="245.83,67.73 251.44,67.73 251.44,48.76 265.71,67.73 269.79,67.73 269.79,37.52 264.14,37.52 264.14,56.44 249.94,37.52 245.83,37.52 "
         id="polygon243" />
      <path
         class="cls-3"
         d="m 106.31,39.39 v 0 l -3.72,5.76 A 16.55,16.55 0 0 1 80.36,67.39 l -5.76,3.72 a 22.73,22.73 0 0 0 31.71,-31.72 z"
         id="path245"
         style="fill:url(#radialGradient1135)" />
      <path
         class="cls-3"
         d="M 87.82,64 A 11.42,11.42 0 0 0 99.05,54.65 26.84,26.84 0 0 0 93.56,54.07 26,26 0 0 0 78.35,59 a 11.41,11.41 0 0 0 9.47,5 z"
         id="path247"
         style="fill:url(#radialGradient1137)" />
      <path
         class="cls-2"
         d="m 93.45,52 a 26.89,26.89 0 0 1 5.79,0.63 v 0 a 11.42,11.42 0 0 0 -22.84,0 11,11 0 0 0 0.11,1.53 v 0 a 25.35,25.35 0 0 0 -4.29,4 16.54,16.54 0 0 1 23,-20.28 L 101,34.12 a 22.73,22.73 0 0 0 -31.5,32 27.15,27.15 0 0 1 3.89,-5.37 32.23,32.23 0 0 1 4,-3.51 A 27.17,27.17 0 0 1 93.45,52 Z"
         id="path249" />
      <path
         class="cls-2"
         d="m 273.79,41.62 v -3.47 h -1.24 v -0.63 h 3.2 v 0.63 h -1.24 v 3.47 z"
         id="path251" />
      <path
         class="cls-2"
         d="m 279.91,41.62 v -3 l -1.26,3 h -0.31 l -1.26,-3 v 3 h -0.72 v -4.1 h 1 l 1.11,2.7 1.12,-2.7 h 1 v 4.1 z"
         id="path253" />
    </g>
  </g>
  <metadata
     id="metadata1427">
    <rdf:RDF>
      <cc:Work
         rdf:about="">
        <dc:title>Asset 2</dc:title>
      </cc:Work>
    </rdf:RDF>
  </metadata>
</svg>
